<?xml version="1.0" encoding="utf-8"?>
<?xml-stylesheet type="text/xsl" href="rss1.xsl"?>
<rss version="2.0" xmlns:atom="http://www.w3.org/2005/Atom" xmlns:content="http://purl.org/rss/1.0/modules/content/" xmlns:dc="http://purl.org/dc/elements/1.1/" xmlns:media="http://search.yahoo.com/mrss/">
<channel>
 <title>Getty</title>
 <link>http://www.gettyimg.com/</link>
 <atom:link href="http://www.gettyimg.com/" rel="self" type="application/rss+xml" />

 
                <item>
                <title><![CDATA[【Cinema Center】MOVIE - To.All.A.Goodnight.1980.1080p.SHDR.WEB-DL.AAC2.0.H.264-Samuel]]></title>
                <link><![CDATA[https://sharemania.us/threads/to-all-a-goodnight-1980-1080p-shdr-web-dl-aac2-0-h-264-samuel.234737/]]></link>
                <description><![CDATA[<article>
<blockquote class="messageText SelectQuoteContainer ugc baseHtml">
<div style="text-align: center"><b><span style="font-size: 26px">To All A Goodnight</span></b><br>
<img src="https://i.imgur.com/0fMYYxM.jpg" class="bbCodeImage LbImage" alt="[​IMG]" data-url="https://i.imgur.com/0fMYYxM.jpg" style=""><br>
<b><a href="https://i.imgur.com/wGNnwmo.jpg" target="_blank" class="externalLink" rel="nofollow">Poster</a></b> | <b><a href="https://i.imgur.com/AKyiBI2.jpg" target="_blank" class="externalLink" rel="nofollow">Background Art</a></b><br>
<br>
Directed by David Hess<br>
<img src="https://i.imgur.com/5wle0JJ.png" class="bbCodeImage LbImage" alt="[​IMG]" data-url="https://i.imgur.com/5wle0JJ.png" style=""><img src="https://i.imgur.com/5wle0JJ.png" class="bbCodeImage LbImage" alt="[​IMG]" data-url="https://i.imgur.com/5wle0JJ.png" style=""><img src="https://i.imgur.com/5wle0JJ.png" class="bbCodeImage LbImage" alt="[​IMG]" data-url="https://i.imgur.com/5wle0JJ.png" style=""><img src="https://i.imgur.com/sAnFMdT.png" class="bbCodeImage LbImage" alt="[​IMG]" data-url="https://i.imgur.com/sAnFMdT.png" style=""><img src="https://i.imgur.com/sAnFMdT.png" class="bbCodeImage LbImage" alt="[​IMG]" data-url="https://i.imgur.com/sAnFMdT.png" style=""> • 1980 • English • 87min • TV-MA<br>
<br>
<div class="bbCodeBlock bbCodeQuote">
<aside>
<blockquote class="quoteContainer"><div class="quote"><span style="font-size: 15px"><span style="font-family: 'Arial'"><b>Description</b></span></span><br>
The Calvin Finishing School for Girls is closed for Christmas vacation. However, Mrs. Jensen (the housemother), five teenage girls and their mischievous male companions are all that remain at the school...or are they? Instead of Santa Claus, they find themselves terrorized by a killer who gives new meaning to the phrase 'To All a Good Night'.</div><div class="quoteExpand">Click to expand...</div></blockquote>
</aside>
</div>
<div class="bbCodeBlock bbCodeQuote">
<aside>
<blockquote class="quoteContainer"><div class="quote"><span style="font-family: 'Arial'"><span style="font-size: 15px"><b>Accessibility</b></span></span><br>
<b>Audio languages:</b> English<br>
<b>Subtitles:</b> English</div><div class="quoteExpand">Click to expand...</div></blockquote>
</aside>
</div>
<div class="bbCodeBlock bbCodeQuote">
<aside>
<blockquote class="quoteContainer"><div class="quote"><span style="font-family: 'Arial'"><span style="font-size: 15px"><b>More Information</b></span></span><br>
<b><i><span style="text-decoration: underline">Runtime</span></i></b><br>
87min<br>
<br>
<b><i><span style="text-decoration: underline">About This Movie</span></i></b><br>
The Calvin Finishing School for Girls is closed for Christmas vacation. However, Mrs. Jensen (the housemother), five teenage girls and their mischievous male companions are all that remain at the school...or are they? Instead of Santa Claus, they find themselves terrorized by a killer who gives new meaning to the phrase 'To All a Good Night'.<br>
<br>
<b><i><span style="text-decoration: underline">Cast</span></i></b><br>
Forrest Swanson, Jennifer Runyon, Linda Gentile, William Lauer</div><div class="quoteExpand quoteCut">Click to expand...</div></blockquote>
</aside>
</div>
<div class="bbCodeBlock bbCodeQuote">
<aside>
<blockquote class="quoteContainer"><div class="quote"><b><span style="font-size: 15px"><span style="font-family: 'Arial'">Source</span></span></b><br>
<img src="https://i.imgur.com/iBinA6h.png" class="bbCodeImage LbImage" alt="[​IMG]" data-url="https://i.imgur.com/iBinA6h.png" style=""></div><div class="quoteExpand">Click to expand...</div></blockquote>
</aside>
</div>
<div class="bbCodeBlock bbCodeQuote">
<aside>
<blockquote class="quoteContainer"><div class="quote"><b><span style="font-size: 15px">Release Name</span></b><br>
To.All.A.Goodnight.1980.1080p.SHDR.WEB-DL.AAC2.0.H.264-Samuel</div><div class="quoteExpand">Click to expand...</div></blockquote>
</aside>
</div>
<div class="ToggleTriggerAnchor bbCodeSpoilerContainer">
<button type="button" class="button bbCodeSpoilerButton ToggleTrigger Tooltip JsOnly" data-target="> .SpoilerTarget"><span>Spoiler: <span class="SpoilerTitle">Media Information</span></span></button>
<div class="SpoilerTarget bbCodeSpoilerText">General<br>
Complete name : To.All.A.Goodnight.1980.1080p.SHDR.WEB-DL.AAC2.0.H.264-Samuel.mkv<br>
Format : Matroska<br>
Format version : Version 4<br>
File size : 2.20 GiB<br>
Duration : 1 h 27 min<br>
Overall bit rate : 3 616 kb/s<br>
Frame rate : 23.976 FPS<br>
Encoded date : 2023-12-17 15:52:21 UTC<br>
Writing application : mkvmerge v81.0 ('Milliontown') 64-bit<br>
Writing library : libebml v1.4.4 + libmatroska v1.7.1<br>
<br>
Video<br>
ID : 1<br>
Format : AVC<br>
Format/Info : Advanced Video Codec<br>
Format profile : High@L4<br>
Format settings : CABAC / 4 Ref Frames<br>
Format settings, CABAC : Yes<br>
Format settings, Reference frames : 4 frames<br>
Codec ID : V_MPEG4/ISO/AVC<br>
Duration : 1 h 27 min<br>
Bit rate : 3 485 kb/s<br>
Width : 1 920 pixels<br>
Height : 1 080 pixels<br>
Display aspect ratio : 16:9<br>
Frame rate mode : Constant<br>
Frame rate : 23.976 (24000/1001) FPS<br>
Color space : YUV<br>
Chroma subsampling : 4:2:0<br>
Bit depth : 8 bits<br>
Scan type : Progressive<br>
Bits/(Pixel*Frame) : 0.070<br>
Stream size : 2.13 GiB (96%)<br>
Writing library : Zencoder Video Encoding System<br>
Default : Yes<br>
Forced : No<br>
Color range : Limited<br>
Color primaries : BT.709<br>
Transfer characteristics : BT.709<br>
Matrix coefficients : BT.709<br>
<br>
Audio<br>
ID : 2<br>
Format : AAC LC<br>
Format/Info : Advanced Audio Codec Low Complexity<br>
Codec ID : A_AAC-2<br>
Duration : 1 h 27 min<br>
Bit rate : 128 kb/s<br>
Channel(s) : 2 channels<br>
Channel layout : L R<br>
Sampling rate : 48.0 kHz<br>
Frame rate : 46.875 FPS (1024 SPF)<br>
Compression mode : Lossy<br>
Stream size : 79.9 MiB (4%)<br>
Language : English<br>
Default : Yes<br>
Forced : No<br>
<br>
Text<br>
ID : 3<br>
Format : UTF-8<br>
Codec ID : S_TEXT/UTF8<br>
Codec ID/Info : UTF-8 Plain Text<br>
Duration : 1 h 27 min<br>
Bit rate : 51 b/s<br>
Frame rate : 0.264 FPS<br>
Count of elements : 1384<br>
Stream size : 33.2 KiB (0%)<br>
Language : English<br>
Default : No<br>
Forced : No</div>
</div><br>
<b>Screenshots</b><br>
<img src="https://i.imgur.com/YRqEXJP.png" class="bbCodeImage LbImage" alt="[​IMG]" data-url="https://i.imgur.com/YRqEXJP.png" style=""><br>
<br>
<b>Download</b><br>
<div class="bbCodeBlock bbCodeVfcHH HiddenContent">
<div class="attribution type">Hidden Content:</div>
<blockquote>You must reply before you can see the hidden data contained here.</blockquote>
</div></div>
<div class="messageTextEndMarker">&nbsp;</div>
</blockquote>
</article>]]></description>
                <author><![CDATA[Samuel]]></author>
                </item>

                </channel></rss>